<svg width="100" height="104" viewBox="0 0 100 104" fill="none" xmlns="http://www.w3.org/2000/svg">
<path fill-rule="evenodd" clip-rule="evenodd" d="M50.5278 84.4776C50.359 84.5514 50.1777 84.5878 49.9973 84.5878C49.8169 84.5878 49.6365 84.5514 49.4677 84.4776C16.267 70.094 21.853 30.8212 21.9143 30.4267C22.0068 29.818 22.5044 29.3523 23.1176 29.2999C38.0592 28.0256 49.0091 18.5597 49.1175 18.4646C49.6205 18.0239 50.3741 18.0239 50.8779 18.4646C50.9863 18.5597 61.9362 28.0256 76.877 29.2999C77.4911 29.3523 77.9878 29.818 78.0811 30.4267C78.1416 30.8212 83.7276 70.094 50.5278 84.4776ZM84.6029 24.8593C66.7242 22.9967 53.4746 13.2403 49.9973 10.4402C46.52 13.2403 33.2712 22.9967 15.3926 24.8593C15.0309 28.1775 14.1894 39.1194 17.0481 51.5187C21.5518 71.0546 32.6341 84.8588 49.9973 92.5598C67.3605 84.8588 78.4437 71.0546 82.9465 51.5187C85.8052 39.1194 84.9646 28.1775 84.6029 24.8593Z" fill="#FAB200"/>
<path fill-rule="evenodd" clip-rule="evenodd" d="M58.9305 42.0874L48.0811 52.7156C47.563 53.2221 46.7365 53.2239 46.2185 52.7191L41.5735 48.203C41.0385 47.6832 40.3445 47.4246 39.6505 47.4246C38.9298 47.4246 38.2109 47.7027 37.6697 48.259C36.6095 49.3503 36.6344 51.1018 37.7257 52.161L45.2356 59.4595C46.2744 60.4708 48.0562 60.4645 49.0914 59.4524L62.7935 46.0294C63.3195 45.5122 63.6146 44.8235 63.6217 44.0859C63.6297 43.3492 63.3497 42.6543 62.8343 42.1274C61.7688 41.0405 60.0182 41.0237 58.9305 42.0874Z" fill="#FAB200"/>
<path fill-rule="evenodd" clip-rule="evenodd" d="M64.6662 47.9337L50.9642 61.3558C49.944 62.3555 48.595 62.9065 47.167 62.9065C45.7469 62.9065 44.4033 62.3609 43.3858 61.3718L35.8759 54.0734C33.7298 51.9886 33.6809 48.546 35.7657 46.4008C37.8522 44.2556 41.2948 44.2085 43.4382 46.2906L47.1519 49.9012L57.0718 40.1821C59.2099 38.0893 62.6516 38.1249 64.7453 40.2612C65.7592 41.2964 66.3102 42.6641 66.2951 44.1134C66.28 45.5628 65.7015 46.9189 64.6662 47.9337ZM50.0018 21.1926C47.103 23.4871 37.4115 30.415 24.4355 31.8493C23.8374 37.9187 22.1783 69.3421 50.0018 81.7982C77.8608 69.3269 76.1741 37.9169 75.5699 31.8493C62.5939 30.415 52.9005 23.4871 50.0018 21.1926Z" fill="#FAB200"/>
</svg>
