<svg width="100" height="104" viewBox="0 0 100 104" fill="none" xmlns="http://www.w3.org/2000/svg">
<path d="M48.6278 18.8188C49.5328 18.6092 50.4774 18.6092 51.3824 18.8188L62.2174 21.3274C64.7246 21.9079 66.6743 24.0614 66.6743 26.7377V34.7916C66.6743 41.8339 62.5109 48.2129 55.9909 51.4836L54.9881 51.9868C51.8523 53.5598 48.1579 53.5598 45.0221 51.9868L44.0193 51.4836C37.4993 48.2129 33.3359 41.8339 33.3359 34.7916V26.7377C33.3359 24.0614 35.2856 21.9079 37.7928 21.3274L48.6278 18.8188Z" fill="#FAB200"/>
<path d="M22.8594 38.6647C23.4672 38.6647 24.0546 38.7522 24.6096 38.9154V61.3477C24.6096 61.8326 24.7681 62.3041 25.061 62.6905L28.7282 67.5278C29.4698 68.506 30.8639 68.6978 31.8421 67.9563C32.8203 67.2147 33.0121 65.8205 32.2705 64.8424L29.0547 60.6005C29.0548 58.2659 30.3234 55.8381 32.6568 55.9148C34.4059 55.9724 36.1259 56.7149 37.3845 58.1065L44.9831 66.5083C45.3527 66.9169 45.5573 67.4482 45.5573 67.9992V83.1158C45.5573 84.3433 44.5622 85.3383 43.3347 85.3383H25.6098C24.8819 85.3383 24.2001 84.9818 23.7847 84.3841L17.0615 74.7095C16.8027 74.3371 16.6641 73.8945 16.6641 73.4411V44.86C16.6641 41.4384 19.4378 38.6647 22.8594 38.6647Z" fill="#FAB200"/>
<path d="M75.393 38.9154C75.948 38.7522 76.5354 38.6647 77.1432 38.6647C80.5648 38.6647 83.3385 41.4384 83.3385 44.86V73.4411C83.3385 73.8945 83.1998 74.3371 82.9411 74.7095L76.2179 84.3841C75.8025 84.9818 75.1206 85.3383 74.3927 85.3383H56.6679C55.4404 85.3383 54.4453 84.3433 54.4453 83.1158V67.9992C54.4453 67.4482 54.6499 66.9169 55.0195 66.5083L62.6181 58.1065C63.8767 56.7149 65.5966 55.9724 67.3458 55.9148C69.6791 55.8381 70.9478 58.2659 70.9479 60.6005L67.7321 64.8424C66.9905 65.8205 67.1823 67.2147 68.1605 67.9563C69.1387 68.6978 70.5328 68.506 71.2744 67.5278L74.9416 62.6905C75.2344 62.3041 75.393 61.8326 75.393 61.3477V38.9154Z" fill="#FAB200"/>
</svg>
