<svg width="41" height="36" viewBox="0 0 41 36" fill="none" xmlns="http://www.w3.org/2000/svg">
<path d="M15 16.126V10.948C15 10.38 14.539 9.792 13.971 9.792H12V5.5C12 4.671 11.328 4 10.5 4C9.672 4 9 4.671 9 5.5V9.792H7.029C6.461 9.792 6 10.38 6 10.948V16.126C6 18.532 8.094 20.481 10.5 20.481C12.906 20.481 15 18.532 15 16.126Z" fill="#1B1409"/>
<path d="M29 10.892V15.431C29.488 15.286 30.004 15.206 30.539 15.206C31.046 15.206 31.534 15.28 32 15.409V10.892C32 6.963 29.206 4 25.5 4C21.794 4 19 6.963 19 10.892V25.9C19 27.835 17.798 29.792 15.5 29.792C13.202 29.792 12 27.835 12 25.9V21.362C11.512 21.507 10.996 21.587 10.461 21.587C9.954 21.587 9.466 21.513 9 21.383V25.9C9 29.829 11.794 32.792 15.5 32.792C19.206 32.792 22 29.829 22 25.9V10.892C22 8.958 23.202 7 25.5 7C27.798 7 29 8.958 29 10.892Z" fill="#1B1409"/>
<path d="M30.5 16.311C28.094 16.311 26 18.261 26 20.667V25.844C26 26.412 26.461 26.792 27.029 26.792H29V31.292C29 32.121 29.672 32.792 30.5 32.792C31.328 32.792 32 32.121 32 31.292V26.792H33.971C34.539 26.792 35 26.412 35 25.844V20.667C35 18.261 32.906 16.311 30.5 16.311Z" fill="#1B1409"/>
</svg>
