<svg width="22" height="22" viewBox="0 0 22 22" fill="none" xmlns="http://www.w3.org/2000/svg">
<path fill-rule="evenodd" clip-rule="evenodd" d="M2.02344 0.5C0.921875 0.5 0.0234375 1.39539 0.0234375 2.5V19.5C0.0234375 20.1531 0.335938 20.7329 0.820312 21.0979C1.15625 21.3503 1.57031 21.5 2.02344 21.5H19.25C20.3516 21.5 21.25 20.6046 21.25 19.5V2.5C21.25 1.39539 20.3516 0.5 19.25 0.5H2.02344ZM5.1875 9.75C4.5 9.75 3.9375 10.3097 3.9375 11C3.9375 11.3536 4.08594 11.673 4.32031 11.9004C4.54688 12.1169 4.85156 12.25 5.1875 12.25H16.0938C16.7812 12.25 17.3438 11.6903 17.3438 11C17.3438 10.3097 16.7812 9.75 16.0938 9.75H5.1875Z" fill="#F9B200"/>
</svg>
