<svg width="110" height="116" viewBox="0 0 110 116" fill="none" xmlns="http://www.w3.org/2000/svg">
<path fill-rule="evenodd" clip-rule="evenodd" d="M70.414 32.066C72.1718 30.2652 74.6171 29.1324 77.3359 29.0972C80.0507 29.062 82.5234 30.1324 84.3242 31.8863C86.125 33.6441 87.2578 36.0894 87.293 38.8082C87.3282 41.523 86.2578 43.9957 84.5039 45.7965C82.7461 47.5973 80.3008 48.7301 77.582 48.7653C74.8672 48.8004 72.3945 47.7301 70.5937 45.9762C68.7929 44.2184 67.6601 41.7731 67.6249 39.0543C67.5898 36.3395 68.6601 33.8668 70.414 32.066ZM77.3828 32.941C75.7305 32.9605 74.2461 33.6519 73.1719 34.7496C72.0977 35.8512 71.4453 37.3551 71.4649 39.0074C71.4845 40.6597 72.1759 42.1441 73.2735 43.2183C74.3751 44.2925 75.879 44.9449 77.5313 44.9253C79.1836 44.9057 80.6719 44.2143 81.7422 43.1167C82.8164 42.0151 83.4688 40.5112 83.4492 38.8589C83.4296 37.2066 82.7383 35.7222 81.6406 34.648C80.539 33.5738 79.0351 32.9214 77.3828 32.941ZM58.6638 24.2574C55.5427 23.1246 51.8591 22.4722 48.1248 22.2652C42.7693 21.9683 37.3668 22.5894 33.3948 24.0074C30.2971 25.1129 27.6487 26.6324 25.5354 28.7574C23.4338 30.8746 21.8284 33.6324 20.801 37.2418C18.3635 45.7965 18.8987 46.8043 19.3205 47.6088C19.8635 48.6361 20.3205 49.5033 19.5901 52.3861C19.008 54.6791 17.3479 56.7884 15.7737 58.7884C14.2425 60.7337 12.8206 62.5423 13.2151 63.1439H13.2112C13.3518 63.3353 14.1096 63.6126 14.844 63.8861C15.5588 64.1517 16.2581 64.4095 16.8831 64.7962L16.8792 64.8001C17.3245 65.0775 17.6565 65.5345 17.7542 66.0931C18.1799 68.4329 17.5823 69.6478 17.0862 70.6595C16.9143 71.0072 16.7893 71.2572 17.8557 72.4407L17.8518 72.4446L17.8713 72.4642C18.5706 73.265 18.4885 74.4759 17.6917 75.179C17.6252 75.2376 17.4924 75.2805 17.5706 75.3821C18.0276 75.9954 18.5315 76.7376 18.7151 77.9524C18.8791 79.0305 18.7229 79.9251 18.5549 80.8743C18.4104 81.6868 18.258 82.5579 18.4377 83.4407C18.7502 84.9602 22.5783 84.5891 25.3557 84.3235C26.0159 84.261 26.0588 84.2493 26.3635 84.2219C29.2932 83.968 31.2737 84.218 32.7971 85.3118C34.3518 86.429 35.133 88.1907 35.6526 90.9407C36.4612 95.2063 36.2151 97.2492 35.4339 100.019C35.4026 100.128 35.4221 100.234 35.4925 100.327C35.5589 100.417 35.6565 100.468 35.7737 100.468H66.6647C66.7819 100.468 66.8835 100.417 66.9499 100.32C67.0163 100.222 67.0358 100.109 66.9928 99.9992C66.8327 99.5461 66.6647 99.0734 66.4928 98.593H66.4967L66.4928 98.5852C64.1373 91.9797 61.1139 83.5072 63.317 76.6162C64.0944 74.1826 65.6725 71.8701 67.192 69.6357C67.9538 68.5185 68.6998 67.4209 69.2662 66.4287C69.8912 65.331 70.4693 64.206 71.0006 63.0576C71.2702 62.4717 71.528 61.874 71.7741 61.2685C71.8092 61.1787 71.8092 61.0927 71.7741 61.0029C71.7311 60.8974 71.696 60.7841 71.6725 60.6708H71.6686L70.9459 57.331C70.9186 57.21 70.8405 57.1201 70.7272 57.0771C70.5202 56.999 70.3131 56.9209 70.11 56.8349C69.9108 56.7529 69.7155 56.6709 69.5241 56.581C69.4108 56.5303 69.2858 56.542 69.1842 56.6123L66.4576 58.4678C65.6686 59.0068 64.6217 58.8779 63.981 58.21L63.9732 58.2022L58.274 52.6436C57.606 51.9951 57.5123 50.9795 57.9967 50.2256L59.8561 47.3428C59.9225 47.2373 59.9303 47.1162 59.8795 47.0068C59.7858 46.8037 59.6959 46.5967 59.61 46.3935C59.528 46.1982 59.4498 46.0029 59.3756 45.8037C59.3287 45.6865 59.235 45.6084 59.1139 45.585L55.8795 44.9717C54.9303 44.792 54.274 43.9483 54.3092 43.0108V42.9951L54.2115 35.0615C54.1998 34.128 54.8561 33.3427 55.7349 33.1592V33.1553L59.0787 32.4327C59.1998 32.4053 59.2897 32.3272 59.3326 32.21C59.4108 32.003 59.4889 31.796 59.5748 31.5928C59.6569 31.3936 59.7389 31.1983 59.8287 31.0069C59.8795 30.8936 59.8678 30.7686 59.7975 30.6671L57.942 27.9405C57.4029 27.1514 57.5318 26.1046 58.1998 25.4639C58.2037 25.4599 58.2076 25.456 58.2076 25.456L58.8053 24.8428C58.8912 24.7529 58.9225 24.6396 58.8951 24.5185C58.8678 24.3974 58.7896 24.3076 58.6725 24.2646L58.6638 24.2574ZM63.8865 25.1246C63.8514 25.1636 63.8123 25.2066 63.7694 25.2418L61.996 27.0582L63.6913 29.5504C64.1014 30.1285 64.1756 30.9137 63.8202 31.5777C63.5545 32.0699 63.3241 32.5581 63.1249 33.0425C62.9334 33.5112 62.7655 33.9839 62.6209 34.4566C62.4608 35.1636 61.8983 35.7496 61.1443 35.9097L58.0701 36.5737L58.1326 41.4682L61.0388 42.019C61.7654 42.1206 62.3982 42.6284 62.6247 43.3784C62.781 43.8979 62.9646 44.4057 63.1716 44.9018C63.3708 45.3823 63.5857 45.8354 63.8162 46.2651C64.1951 46.8745 64.2146 47.6753 63.8005 48.3237L62.0896 50.976L65.5935 54.394L68.0857 52.6987C68.6638 52.2885 69.449 52.2143 70.113 52.5698C70.6052 52.8354 71.0935 53.0659 71.5778 53.2651C72.0427 53.4565 72.527 53.6284 73.027 53.7768C73.7184 53.9487 74.2887 54.5034 74.445 55.2456L75.1091 58.3198L80.0036 58.2573L80.5544 55.3511C80.6559 54.6246 81.1637 53.9917 81.9138 53.7652C82.4333 53.609 82.945 53.4254 83.4372 53.2183C83.9176 53.0191 84.3708 52.8043 84.8005 52.5738C85.4098 52.1949 86.2107 52.1754 86.8591 52.5894L89.5114 54.3003L92.9294 50.7964L91.2341 48.3042C90.8239 47.7261 90.7497 46.9409 91.1052 46.2769C91.3708 45.7847 91.6012 45.2965 91.8005 44.8121C91.9919 44.3434 92.1598 43.8707 92.3044 43.398C92.4645 42.691 93.027 42.105 93.781 41.9449L96.8552 41.2809L96.7927 36.3864L93.8865 35.8356C93.1599 35.734 92.5271 35.2262 92.3006 34.4762C92.1443 33.9567 91.9607 33.445 91.7537 32.9528C91.5545 32.4723 91.3396 32.0192 91.1092 31.5895C90.7303 30.9801 90.7107 30.1793 91.1248 29.5309L92.8357 26.8786L89.3318 23.4606L86.8396 25.1559C86.2615 25.5661 85.4763 25.6403 84.8123 25.2848C84.3201 25.0192 83.8318 24.7887 83.3475 24.5895C82.8787 24.3981 82.4061 24.2301 81.9334 24.0856C81.2264 23.9254 80.6404 23.3629 80.4803 22.609L79.8162 19.5348L74.9217 19.5973L74.371 22.4996C74.2694 23.2261 73.7616 23.859 73.0116 24.0855C72.492 24.2417 71.9804 24.4253 71.4882 24.6324C71.0077 24.8316 70.5546 25.0464 70.1249 25.2769C69.5155 25.6558 68.7147 25.6753 68.0663 25.2613L65.414 23.5504L63.8867 25.1168L63.8865 25.1246Z" fill="#FAB200"/>
</svg>
