<svg width="83" height="83" viewBox="0 0 83 83" fill="none" xmlns="http://www.w3.org/2000/svg">
<path d="M73.9713 29.4079C74.4044 30.5853 74.039 31.8981 73.1052 32.7371L67.2452 38.0693C67.3941 39.1925 67.4753 40.3429 67.4753 41.5067C67.4753 42.6706 67.3941 43.8209 67.2452 44.9442L73.1052 50.2763C74.039 51.1154 74.4044 52.4282 73.9713 53.6056C73.3758 55.216 72.6586 56.7588 71.833 58.2475L71.197 59.3437C70.3038 60.8324 69.3023 62.2398 68.2061 63.5661C67.4076 64.5405 66.0814 64.8653 64.8904 64.4864L57.3524 62.091C55.5389 63.4849 53.536 64.6488 51.3977 65.5284L49.706 73.256C49.4354 74.4875 48.488 75.4619 47.243 75.6649C45.3754 75.9762 43.4536 76.1386 41.4913 76.1386C39.5289 76.1386 37.6072 75.9762 35.7396 75.6649C34.4945 75.4619 33.5472 74.4875 33.2765 73.256L31.5849 65.5284C29.4466 64.6488 27.4437 63.4849 25.6302 62.091L18.1057 64.4999C16.9147 64.8788 15.5885 64.5405 14.79 63.5796C13.6938 62.2534 12.6923 60.8459 11.7991 59.3572L11.1631 58.261C10.3375 56.7724 9.62026 55.2296 9.02479 53.6191C8.59173 52.4417 8.95713 51.1289 9.89093 50.2899L15.7509 44.9577C15.602 43.8209 15.5208 42.6706 15.5208 41.5067C15.5208 40.3429 15.602 39.1925 15.7509 38.0693L9.89093 32.7371C8.95713 31.8981 8.59173 30.5853 9.02479 29.4079C9.62026 27.7975 10.3375 26.2547 11.1631 24.766L11.7991 23.6698C12.6923 22.1811 13.6938 20.7737 14.79 19.4474C15.5885 18.473 16.9147 18.1482 18.1057 18.5271L25.6437 20.9225C27.4572 19.5286 29.4601 18.3647 31.5984 17.4851L33.2901 9.75752C33.5607 8.52599 34.5081 7.55159 35.7531 7.34859C37.6207 7.02379 39.5425 6.86139 41.5048 6.86139C43.4671 6.86139 45.3889 7.02379 47.2565 7.33506C48.5016 7.53806 49.4489 8.51246 49.7196 9.74399L51.4112 17.4715C53.5495 18.3512 55.5524 19.5151 57.3659 20.909L64.904 18.5136C66.0949 18.1347 67.4212 18.473 68.2196 19.4339C69.3158 20.7601 70.3173 22.1676 71.2105 23.6563L71.8466 24.7525C72.6721 26.2411 73.3894 27.7839 73.9848 29.3944L73.9713 29.4079ZM41.5048 52.3334C44.3762 52.3334 47.13 51.1928 49.1604 49.1624C51.1908 47.132 52.3315 44.3782 52.3315 41.5067C52.3315 38.6353 51.1908 35.8815 49.1604 33.8511C47.13 31.8207 44.3762 30.6801 41.5048 30.6801C38.6334 30.6801 35.8796 31.8207 33.8492 33.8511C31.8188 35.8815 30.6781 38.6353 30.6781 41.5067C30.6781 44.3782 31.8188 47.132 33.8492 49.1624C35.8796 51.1928 38.6334 52.3334 41.5048 52.3334Z" fill="#251C0C"/>
</svg>
