<svg width="28" height="28" viewBox="0 0 28 28" fill="none" xmlns="http://www.w3.org/2000/svg">
<path d="M22.1667 3.5H5.83333C4.55 3.5 3.5 4.55 3.5 5.83333V22.1667C3.5 23.45 4.55 24.5 5.83333 24.5H22.1667C23.45 24.5 24.5 23.45 24.5 22.1667V5.83333C24.5 4.55 23.45 3.5 22.1667 3.5ZM12.495 19.005C12.3871 19.1132 12.2589 19.199 12.1177 19.2575C11.9766 19.3161 11.8253 19.3462 11.6725 19.3462C11.5197 19.3462 11.3684 19.3161 11.2273 19.2575C11.0861 19.199 10.9579 19.1132 10.85 19.005L6.66167 14.8167C6.55365 14.7087 6.46797 14.5804 6.40952 14.4393C6.35106 14.2982 6.32098 14.1469 6.32098 13.9942C6.32098 13.8414 6.35106 13.6902 6.40952 13.549C6.46797 13.4079 6.55365 13.2797 6.66167 13.1717C6.76968 13.0637 6.89791 12.978 7.03903 12.9195C7.18016 12.8611 7.33141 12.831 7.48417 12.831C7.63692 12.831 7.78818 12.8611 7.9293 12.9195C8.07042 12.978 8.19865 13.0637 8.30667 13.1717L11.6667 16.5317L19.6933 8.505C19.9115 8.28686 20.2073 8.16431 20.5158 8.16431C20.8243 8.16431 21.1202 8.28686 21.3383 8.505C21.5565 8.72314 21.679 9.019 21.679 9.3275C21.679 9.636 21.5565 9.93186 21.3383 10.15L12.495 19.005Z" fill="#F9B200"/>
</svg>
