<svg width="100" height="104" viewBox="0 0 100 104" fill="none" xmlns="http://www.w3.org/2000/svg">
<path d="M43.3984 62.2699V78.6399H55.6684V62.2699H43.3984Z" fill="#251C0C"/>
<path d="M33.1681 62.2699V68.4099C33.1681 68.9523 32.9527 69.4724 32.5692 69.8559C32.1856 70.2394 31.6655 70.4549 31.1231 70.4549C30.5808 70.4549 30.0606 70.2394 29.6771 69.8559C29.2936 69.4724 29.0781 68.9523 29.0781 68.4099V62.2699H33.1681Z" fill="#251C0C"/>
<path d="M80.2108 58.1799H18.8608C17.925 58.1862 17.0002 57.9785 16.157 57.5727C15.3138 57.1669 14.5746 56.5737 13.9956 55.8385C13.4167 55.1033 13.0136 54.2455 12.8169 53.3307C12.6202 52.4158 12.6352 51.4681 12.8608 50.5599L22.2908 12.7499C22.8473 10.5297 24.1317 8.55994 25.9389 7.15517C27.7461 5.75039 29.9718 4.9916 32.2608 4.99995H66.8108C69.092 4.99928 71.3079 5.76189 73.1056 7.16634C74.9033 8.57078 76.1794 10.5363 76.7308 12.7499L86.1708 50.5599C86.3963 51.4681 86.4114 52.4158 86.2147 53.3307C86.018 54.2455 85.6148 55.1033 85.0359 55.8385C84.457 56.5737 83.7177 57.1669 82.8745 57.5727C82.0313 57.9785 81.1065 58.1862 80.1708 58.1799H80.2108Z" fill="#251C0C"/>
<path d="M72.0003 82.7299H27.0003C24.8308 82.7299 22.7502 83.5917 21.2162 85.1258C19.6821 86.6598 18.8203 88.7404 18.8203 90.9099C18.8203 91.4496 18.9271 91.9839 19.1345 92.482C19.3419 92.9802 19.6459 93.4325 20.0288 93.8126C20.4118 94.1928 20.8662 94.4935 21.3659 94.6972C21.8656 94.901 22.4007 95.0039 22.9403 94.9999H76.1303C76.6674 94.9999 77.1993 94.8941 77.6955 94.6886C78.1917 94.483 78.6426 94.1818 79.0224 93.802C79.4022 93.4222 79.7034 92.9713 79.909 92.4751C80.1145 91.9789 80.2203 91.447 80.2203 90.9099C80.219 89.8327 80.0052 88.7663 79.5912 87.7719C79.1771 86.7774 78.5709 85.8744 77.8074 85.1145C77.0438 84.3547 76.1379 83.7529 75.1414 83.3438C74.1449 82.9346 73.0775 82.726 72.0003 82.7299Z" fill="#251C0C"/>
</svg>
