<svg width="195" height="54" viewBox="0 0 195 54" fill="none" xmlns="http://www.w3.org/2000/svg">
<path d="M39.0019 11.8212L33.849 3.38639C33.4606 2.75062 32.5383 2.74758 32.1457 3.38078L2.94856 50.4729C2.53554 51.139 3.01465 51.9998 3.79847 51.9998H60.3621C61.1107 51.9998 61.5939 51.2075 61.2511 50.5419L59.0019 46.1746" stroke="#FAB200" stroke-width="4"/>
<path d="M31 16.5581H49.3242V21.3383H36.2582V27.9908H48.2088V32.771H36.2582V39.6625H49.5632V44.4427H31V16.5581Z" fill="#181515"/>
<path d="M44.0439 18.7045L34.3398 12.7302L44.3657 7.31348L44.0439 18.7045Z" fill="#FAB200"/>
<path d="M31 16H49.3242V20.7802H36.2582V27.4327H48.2088V32.2129H36.2582V39.1044H49.5632V43.8846H31V16Z" fill="#181515"/>
<path d="M58.9792 16V44H53.9392V16H58.9792ZM62.2705 33.92C62.2705 27.76 66.3905 23.6 72.2305 23.6C77.9905 23.6 81.8705 27.64 81.8705 33.76V35.64H67.4305C67.6305 38.2 69.6705 40.24 72.4705 40.24C75.2705 40.24 76.6705 38.68 77.5105 37.2L81.5505 39.68C80.4305 41.2 78.0705 44.56 72.4705 44.56C66.3905 44.56 62.2705 40.08 62.2705 33.92ZM67.4705 32.12H76.7505C76.4705 29.52 74.7905 27.92 72.1905 27.92C69.3505 27.92 67.7905 29.6 67.4705 32.12ZM83.7939 34.08C83.7939 27.92 88.3539 23.6 94.1139 23.6C99.6339 23.6 102.994 26.84 103.874 31.28L98.9939 32.32C98.7139 29.92 97.2339 28 94.1939 28C91.1539 28 88.8339 30.24 88.8339 34.08C88.8339 37.92 91.1539 40.16 94.1939 40.16C97.2339 40.16 98.7139 38.36 99.1539 35.8L104.034 36.96C102.914 41.32 99.6739 44.56 94.1139 44.56C88.3539 44.56 83.7939 40.24 83.7939 34.08ZM104.867 28.24V24.16H109.827V18H114.867V24.16H120.307V28.24H114.867V38.72C114.867 39.52 115.267 39.92 115.987 39.92H119.827V44H114.227C111.587 44 109.827 42.24 109.827 39.52V28.24H104.867ZM128.626 24.16V26.96H129.026C129.786 24.84 131.466 24.08 133.986 24.08H136.066V28.32H133.106C130.546 28.32 128.706 29.68 128.706 32.48V44H123.666V24.16H128.626ZM136.841 34.08C136.841 27.6 141.321 23.6 147.241 23.6C153.161 23.6 157.641 27.6 157.641 34.08C157.641 40.56 153.161 44.56 147.241 44.56C141.321 44.56 136.841 40.56 136.841 34.08ZM141.881 34.08C141.881 37.92 144.121 40.16 147.241 40.16C150.361 40.16 152.601 37.92 152.601 34.08C152.601 30.24 150.361 28 147.241 28C144.121 28 141.881 30.24 141.881 34.08Z" fill="#181515"/>
<path d="M53.9418 39.0332L64.2044 44.3354L53.9102 49.5888L53.9418 39.0332Z" fill="#FAB200"/>
</svg>
