<svg width="34" height="34" viewBox="0 0 34 34" fill="none" xmlns="http://www.w3.org/2000/svg">
<path d="M8.4974 28.3334C7.31684 28.3334 6.31337 27.9202 5.48698 27.0938C4.66059 26.2674 4.2474 25.264 4.2474 24.0834H2.83073C2.42934 24.0834 2.09312 23.9474 1.82206 23.6754C1.55101 23.4034 1.41501 23.0672 1.41406 22.6667V8.50008C1.41406 7.72091 1.69173 7.05414 2.24706 6.49975C2.8024 5.94536 3.46917 5.66769 4.2474 5.66675H21.2474C22.0266 5.66675 22.6938 5.94441 23.2491 6.49975C23.8045 7.05508 24.0817 7.72186 24.0807 8.50008V11.3334H26.9141C27.3627 11.3334 27.7877 11.434 28.1891 11.6352C28.5905 11.8363 28.921 12.1135 29.1807 12.4667L32.2974 16.6105C32.3918 16.7286 32.4627 16.8584 32.5099 17.0001C32.5571 17.1417 32.5807 17.2952 32.5807 17.4605V22.6667C32.5807 23.0681 32.4447 23.4048 32.1727 23.6768C31.9007 23.9488 31.5645 24.0844 31.1641 24.0834H29.7474C29.7474 25.264 29.3342 26.2674 28.5078 27.0938C27.6814 27.9202 26.678 28.3334 25.4974 28.3334C24.3168 28.3334 23.3134 27.9202 22.487 27.0938C21.6606 26.2674 21.2474 25.264 21.2474 24.0834H12.7474C12.7474 25.264 12.3342 26.2674 11.5078 27.0938C10.6814 27.9202 9.67795 28.3334 8.4974 28.3334ZM8.4974 25.5001C8.89878 25.5001 9.23548 25.3641 9.50748 25.0921C9.77948 24.8201 9.91501 24.4839 9.91406 24.0834C9.91312 23.683 9.77712 23.3467 9.50606 23.0747C9.23501 22.8027 8.89878 22.6667 8.4974 22.6667C8.09601 22.6667 7.75978 22.8027 7.48873 23.0747C7.21767 23.3467 7.08167 23.683 7.08073 24.0834C7.07978 24.4839 7.21578 24.8206 7.48873 25.0935C7.76167 25.3664 8.0979 25.502 8.4974 25.5001ZM25.4974 25.5001C25.8988 25.5001 26.2355 25.3641 26.5075 25.0921C26.7795 24.8201 26.915 24.4839 26.9141 24.0834C26.9131 23.683 26.7771 23.3467 26.5061 23.0747C26.235 22.8027 25.8988 22.6667 25.4974 22.6667C25.096 22.6667 24.7598 22.8027 24.4887 23.0747C24.2177 23.3467 24.0817 23.683 24.0807 24.0834C24.0798 24.4839 24.2158 24.8206 24.4887 25.0935C24.7617 25.3664 25.0979 25.502 25.4974 25.5001ZM24.0807 18.4167H30.1016L26.9141 14.1667H24.0807V18.4167Z" fill="#1B1307"/>
</svg>
