<svg width="34" height="34" viewBox="0 0 34 34" fill="none" xmlns="http://www.w3.org/2000/svg">
<g clip-path="url(#clip0_180_50)">
<path fill-rule="evenodd" clip-rule="evenodd" d="M16.0055 3.10959C16.5645 2.90042 17.1754 2.87316 17.7508 3.03168L17.9945 3.10959L27.9112 6.82834C28.414 7.01689 28.8529 7.34444 29.1767 7.77284C29.5005 8.20123 29.6959 8.71283 29.7401 9.24801L29.75 9.48176V17.0793C29.7499 19.3749 29.1301 21.6279 27.9559 23.6005C26.7818 25.5731 25.0968 27.1921 23.0789 28.2866L22.7021 28.4835L17.9506 30.8593C17.689 30.9899 17.4032 31.0651 17.1112 31.0802C16.8191 31.0953 16.5271 31.05 16.2534 30.9471L16.0494 30.8593L11.2979 28.4835C9.24461 27.4568 7.5066 25.8948 6.26734 23.9624C5.02808 22.0299 4.33356 19.7987 4.25708 17.5043L4.25 17.0793V9.48176C4.25001 8.94502 4.40247 8.41933 4.68964 7.96588C4.97681 7.51243 5.38687 7.14988 5.87208 6.92043L6.08883 6.82834L16.0055 3.10959ZM21.8634 12.2244L15.3496 18.7383L12.8449 16.2336C12.5791 15.968 12.2186 15.8188 11.8428 15.8189C11.467 15.8191 11.1067 15.9685 10.841 16.2343C10.5754 16.5001 10.4262 16.8606 10.4264 17.2364C10.4265 17.6122 10.5759 17.9725 10.8417 18.2382L14.2474 21.6438C14.3921 21.7886 14.564 21.9035 14.7531 21.9818C14.9422 22.0602 15.1449 22.1005 15.3496 22.1005C15.5543 22.1005 15.757 22.0602 15.9461 21.9818C16.1352 21.9035 16.307 21.7886 16.4517 21.6438L23.8666 14.2276C24.0019 14.0969 24.1098 13.9406 24.1841 13.7677C24.2583 13.5949 24.2974 13.409 24.299 13.2209C24.3007 13.0328 24.2648 12.8463 24.1936 12.6722C24.1223 12.4981 24.0172 12.3399 23.8841 12.2069C23.7511 12.0739 23.593 11.9687 23.4189 11.8974C23.2447 11.8262 23.0582 11.7904 22.8701 11.792C22.682 11.7936 22.4961 11.8327 22.3233 11.9069C22.1504 11.9812 21.9941 12.0891 21.8634 12.2244Z" fill="#1B1307"/>
</g>
<defs>
<clipPath id="clip0_180_50">
<rect width="34" height="34" fill="white"/>
</clipPath>
</defs>
</svg>
