<svg width="96" height="91" viewBox="0 0 96 91" fill="none" xmlns="http://www.w3.org/2000/svg">
<path d="M69.5381 50.15V18.24C69.5328 15.8202 68.5692 13.501 66.8582 11.7899C65.1471 10.0789 62.8279 9.11527 60.4081 9.10999H15.7081C13.2875 9.11263 10.9668 10.0754 9.25516 11.787C7.54353 13.4987 6.58077 15.8194 6.57812 18.24V50.15C6.57813 52.5714 7.54003 54.8937 9.25224 56.6059C10.9644 58.3181 13.2867 59.28 15.7081 59.28H25.7081V71.13C25.7083 71.6227 25.8534 72.1045 26.1255 72.5152C26.3976 72.926 26.7845 73.2476 27.2381 73.44C27.5555 73.5691 27.8955 73.6337 28.2381 73.63C28.8949 73.6317 29.5264 73.377 29.9981 72.92L43.9381 59.28H60.4081C62.8287 59.2773 65.1495 58.3146 66.8611 56.6029C68.5727 54.8913 69.5355 52.5706 69.5381 50.15ZM40.5581 48H35.5581V43.21H40.5581V48ZM43.1881 35.43C42.3879 35.9984 41.7329 36.7472 41.2759 37.6159C40.819 38.4845 40.5731 39.4486 40.5581 40.43H35.5581C35.5816 38.6676 36.0182 36.9353 36.8327 35.3722C37.6473 33.8091 38.8171 32.4589 40.2481 31.43C40.7423 31.0744 41.1419 30.6032 41.4121 30.0576C41.6823 29.512 41.8148 28.9086 41.7981 28.3C41.7681 27.3309 41.3696 26.4097 40.684 25.7241C39.9984 25.0385 39.0772 24.6401 38.1081 24.61C37.612 24.602 37.1192 24.6929 36.6585 24.8773C36.1978 25.0617 35.7783 25.3359 35.4247 25.684C35.071 26.0321 34.7901 26.447 34.5984 26.9048C34.4068 27.3625 34.3081 27.8538 34.3081 28.35H29.3081C29.3059 27.19 29.5356 26.0413 29.9838 24.9713C30.4321 23.9014 31.0897 22.932 31.9181 22.12C32.7355 21.2971 33.7124 20.65 34.7889 20.2184C35.8654 19.7867 37.0187 19.5797 38.1781 19.61C40.0146 19.6359 41.7962 20.2397 43.27 21.3356C44.7438 22.4316 45.8349 23.964 46.3884 25.7152C46.9419 27.4665 46.9297 29.3476 46.3534 31.0914C45.7771 32.8353 44.6661 34.3534 43.1781 35.43H43.1881ZM89.4181 31.5V63.41C89.4181 65.8314 88.4562 68.1537 86.744 69.8659C85.0318 71.5781 82.7096 72.54 80.2881 72.54H70.2881V84.39C70.2873 84.8813 70.1418 85.3614 69.8696 85.7705C69.5975 86.1795 69.2109 86.4994 68.7581 86.69C68.4429 86.8272 68.1019 86.8954 67.7581 86.89C67.1014 86.8917 66.4699 86.637 65.9981 86.18L52.0581 72.54H46.2181V67.54H53.0781C53.7331 67.5425 54.3611 67.8009 54.8281 68.26L65.2481 78.45V70C65.2481 69.3369 65.5115 68.7011 65.9804 68.2322C66.4492 67.7634 67.0851 67.5 67.7481 67.5H80.2881C80.8305 67.5 81.3675 67.3932 81.8686 67.1856C82.3697 66.9781 82.825 66.6738 83.2085 66.2903C83.592 65.9068 83.8962 65.4515 84.1037 64.9505C84.3113 64.4494 84.4181 63.9123 84.4181 63.37V31.5C84.4181 30.4046 83.983 29.3542 83.2085 28.5796C82.4339 27.8051 81.3835 27.37 80.2881 27.37V22.37C82.7096 22.37 85.0318 23.3319 86.744 25.0441C88.4562 26.7563 89.4181 29.0786 89.4181 31.5Z" fill="#251C0C"/>
</svg>
