<svg width="32" height="33" viewBox="0 0 32 33" fill="none" xmlns="http://www.w3.org/2000/svg">
<path d="M25 12C24.5383 12 24.1058 12.1135 23.7147 12.3006L22.7526 11.3386C22.9033 10.918 23 10.4717 23 10C23 9.52832 22.9033 9.08203 22.7526 8.66144L23.7147 7.6994C24.1058 7.88654 24.5383 8 25 8C26.6543 8 28 6.6543 28 5C28 3.3457 26.6543 2 25 2C23.3457 2 22 3.3457 22 5C22 5.46173 22.1135 5.89423 22.3006 6.28534L21.6003 6.98566C20.899 6.37988 19.9972 6 19 6C18.0028 6 17.101 6.37988 16.3997 6.98566L15.6994 6.28534C15.8865 5.89423 16 5.46173 16 5C16 3.3457 14.6543 2 13 2C11.3457 2 10 3.3457 10 5C10 6.6543 11.3457 8 13 8C13.4617 8 13.8942 7.88654 14.2853 7.6994L15.2474 8.66144C15.0967 9.08203 15 9.52832 15 10C15 10.4717 15.0967 10.918 15.2474 11.3386L14.2853 12.3006C13.8942 12.1135 13.4617 12 13 12C11.3457 12 10 13.3457 10 15C10 16.6543 11.3457 18 13 18C14.6543 18 16 16.6543 16 15C16 14.5383 15.8865 14.1058 15.6994 13.7147L16.3997 13.0143C17.101 13.6201 18.0028 14 19 14C19.9972 14 20.899 13.6201 21.6003 13.0143L22.3006 13.7147C22.1135 14.1058 22 14.5383 22 15C22 16.6543 23.3457 18 25 18C26.6543 18 28 16.6543 28 15C28 13.3457 26.6543 12 25 12Z" fill="#251C0C"/>
<path d="M4 17H2V29H4C4.55231 29 5 28.5522 5 28V18C5 17.4477 4.55231 17 4 17Z" fill="#251C0C"/>
<path d="M28.854 18.3375C28.1318 17.906 27.2568 17.8874 26.5176 18.2868L19.9691 21.807C19.8162 23.0402 18.7737 24.0008 17.5 24.0008H13.48C13.2036 24.0008 12.98 23.7772 12.98 23.5009C12.98 23.2246 13.2036 23.0009 13.48 23.0009H17.5C18.3271 23.0009 19 22.3282 19 21.5012C19 20.6898 18.3514 20.0308 17.5459 20.006C17.2466 20.0025 12.4141 20.0014 12.4141 20.0014L10.707 18.2946C10.5195 18.1071 10.2651 18.0017 10 18.0017H6V28.0022H7.76562L11 29.0001C12.3438 29.4322 13.781 30 15.3735 30C16.8135 30 18.2324 29.5225 19.457 28.5842L28.9805 22.2813C29.6187 21.8439 30 21.1213 30 20.3499C30 19.517 29.5718 18.7652 28.854 18.3375Z" fill="#251C0C"/>
</svg>
