<svg width="100" height="104" viewBox="0 0 100 104" fill="none" xmlns="http://www.w3.org/2000/svg">
<path d="M61.6186 14.8284C56.0372 14.798 50.601 16.6064 46.15 19.974C41.6989 23.3417 38.4806 28.0813 36.9922 33.4607C39.3651 33.3405 41.744 33.5043 44.078 33.9486C44.7982 34.1113 45.4952 34.2739 46.1921 34.4598C47.0053 34.6688 47.8184 34.9012 48.5852 35.18C50.0506 35.6919 51.4724 36.3212 52.8366 37.0618C53.7154 37.552 54.5684 38.087 55.3922 38.6649C55.8802 38.99 56.368 39.3386 56.8326 39.7102C58.1762 40.7293 59.4278 41.8643 60.573 43.1022C61.5547 44.1783 62.4629 45.3193 63.2913 46.5174C63.517 46.8397 63.7264 47.1731 63.9186 47.5164C66.9879 52.3238 68.6089 57.9129 68.5883 63.6165C68.5883 64.0811 68.5883 64.5458 68.5418 65.0104C74.484 63.3353 79.6196 59.5669 83.0003 54.4009C86.3809 49.2349 87.7784 43.0202 86.9346 36.9043C86.0908 30.7884 83.0628 25.1843 78.4097 21.1267C73.7565 17.069 67.7924 14.8319 61.6186 14.8284Z" fill="#FAB200" fill-opacity="0.2"/>
<path d="M42.4903 38.4093C40.3967 38.0439 38.2639 37.958 36.1478 38.1539C36.1285 38.3391 36.1208 38.5253 36.1246 38.7115C36.0781 39.269 36.0549 39.8266 36.0549 40.3842C36.0409 43.904 36.7692 47.3871 38.1923 50.6065L42.4903 38.4093Z" fill="#FAB200"/>
<path d="M41.2812 55.8335C42.3141 57.2446 43.5156 58.5241 44.859 59.6436L51.2479 41.5456C49.9152 40.7342 48.4973 40.0719 47.0197 39.5708L41.2812 55.8335Z" fill="#FAB200"/>
<path d="M58.748 48.2133C57.7032 46.8052 56.503 45.5193 55.1701 44.38L48.7812 62.4781C50.1229 63.2789 51.539 63.948 53.0096 64.476L58.748 48.2133Z" fill="#FAB200"/>
<path d="M57.5312 65.5912C58.8817 65.8245 60.2497 65.9411 61.6202 65.9398C62.1777 65.9398 62.7353 65.9165 63.3161 65.87C63.4787 65.87 63.6414 65.8467 63.8273 65.8467C63.8969 65.0802 63.9202 64.3367 63.9202 63.6164C63.9259 60.1224 63.206 56.6652 61.8061 53.4639L57.5312 65.5912Z" fill="#FAB200"/>
<path d="M61.6084 70.5861C59.7142 70.5822 57.8243 70.4033 55.963 70.0517C55.266 69.9123 54.569 69.7729 53.872 69.5872C53.0589 69.378 52.2457 69.1225 51.4558 68.8437C49.9952 68.3291 48.5807 67.6918 47.2275 66.9386C46.3571 66.4721 45.5119 65.9603 44.6952 65.4052C44.1841 65.0568 43.6962 64.7083 43.2083 64.3366C41.8645 63.3263 40.6128 62.199 39.4678 60.9679C38.4805 59.8884 37.5721 58.7393 36.7496 57.5295C36.5174 57.2042 36.3082 56.8789 36.0991 56.5305C33.0134 51.7121 31.3839 46.1056 31.4062 40.384C31.4062 39.9193 31.4062 39.4547 31.4295 39.0132C27.1402 40.2255 23.2424 42.5383 20.123 45.7223C17.0036 48.9062 14.771 52.8505 13.6467 57.1637C12.5225 61.477 12.5457 66.0092 13.714 70.3108C14.8823 74.6123 17.1552 78.5335 20.307 81.6854C23.4588 84.8372 27.3801 87.11 31.6816 88.2784C35.9831 89.4467 40.5154 89.4699 44.8286 88.3456C49.1419 87.2214 53.0862 84.9888 56.2701 81.8694C59.454 78.75 61.7669 74.8522 62.9792 70.5629C62.5377 70.5861 62.0963 70.5861 61.6549 70.5861H61.6084Z" fill="#FAB200"/>
</svg>
