<svg width="110" height="120" viewBox="0 0 110 120" fill="none" xmlns="http://www.w3.org/2000/svg">
<path d="M84.1641 18.332H25.8281C18.9531 18.332 13.3281 23.957 13.3281 30.832V89.168C13.3281 96.043 18.9531 101.668 25.8281 101.668H84.1641C91.0391 101.668 96.6641 96.043 96.6641 89.168V30.832C96.6641 23.957 91.0391 18.332 84.1641 18.332ZM54.9961 87.082C40.0781 87.082 27.9141 74.918 27.9141 60C27.9141 45.082 40.0781 32.918 54.9961 32.918C69.9141 32.918 82.0781 45.082 82.0781 60C82.0781 74.918 69.9141 87.082 54.9961 87.082Z" fill="#1B1409"/>
<path d="M63.3321 53.75C61.0391 53.75 59.1641 55.625 59.1641 57.918V62.0821C59.1641 64.3751 61.0391 66.2501 63.3321 66.2501C65.6212 66.2501 67.4962 64.3751 67.4962 62.0821V57.918C67.4962 55.625 65.6212 53.75 63.3321 53.75Z" fill="#1B1409"/>
<path d="M46.668 53.75C44.375 53.75 42.5 55.625 42.5 57.918V62.0821C42.5 64.3751 44.375 66.2501 46.668 66.2501C48.9571 66.2501 50.8321 64.3751 50.8321 62.0821V57.918C50.8321 55.625 48.9571 53.75 46.668 53.75Z" fill="#1B1409"/>
</svg>
