<svg width="34" height="34" viewBox="0 0 34 34" fill="none" xmlns="http://www.w3.org/2000/svg">
<path d="M11.6813 10.3982L2.64295 11.7086L2.48286 11.7412C2.24053 11.8056 2.01961 11.9331 1.84266 12.1107C1.66572 12.2883 1.53908 12.5097 1.4757 12.7523C1.41232 12.9949 1.41445 13.25 1.48189 13.4915C1.54932 13.733 1.67964 13.9522 1.85953 14.1269L8.40736 20.5005L6.8632 29.5034L6.84478 29.6592C6.82995 29.9099 6.88199 30.1599 6.99558 30.3839C7.10918 30.6078 7.28024 30.7975 7.49126 30.9335C7.70227 31.0696 7.94566 31.1471 8.19649 31.1582C8.44732 31.1693 8.6966 31.1135 8.91878 30.9966L17.0023 26.7466L25.0674 30.9966L25.209 31.0617C25.4429 31.1538 25.697 31.1821 25.9453 31.1435C26.1937 31.105 26.4273 31.0011 26.6223 30.8425C26.8172 30.6839 26.9665 30.4763 27.0547 30.241C27.1429 30.0056 27.167 29.7511 27.1244 29.5034L25.5788 20.5005L32.1294 14.1255L32.2399 14.0051C32.3978 13.8106 32.5013 13.5779 32.5399 13.3304C32.5785 13.083 32.5508 12.8298 32.4597 12.5965C32.3685 12.3633 32.2172 12.1583 32.0211 12.0026C31.8249 11.8469 31.591 11.746 31.3432 11.7101L22.3049 10.3982L18.2645 2.20989C18.1476 1.97265 17.9666 1.77287 17.742 1.63317C17.5175 1.49347 17.2583 1.41943 16.9938 1.41943C16.7293 1.41943 16.4701 1.49347 16.2455 1.63317C16.0209 1.77287 15.8399 1.97265 15.723 2.20989L11.6813 10.3982Z" fill="#1B1307"/>
</svg>
