<svg width="46" height="51" viewBox="0 0 46 51" fill="none" xmlns="http://www.w3.org/2000/svg">
<path fill-rule="evenodd" clip-rule="evenodd" d="M17.056 28.3613L20.9747 32.3109L12.3132 41.0371C11.2342 42.1208 9.47344 42.1208 8.3945 41.0371C7.3193 39.9496 7.3193 38.1712 8.3945 37.0875L17.056 28.3613ZM25.8224 19.5255L22.4582 22.9126L26.3769 26.8622L29.7373 23.4714L25.8224 19.5255ZM41.276 20.2354L39.2793 18.2266C39.0208 17.9623 38.6424 17.8868 38.3127 17.9963C37.9193 18.1284 37.526 18.0794 37.1738 17.8641C36.8179 17.6451 36.6006 17.3166 36.5369 16.9013L36.477 16.5161C36.3384 15.6174 35.9675 14.8811 35.3269 14.2392L32.9592 11.849C29.7261 8.5904 24.7322 8.29965 21.1433 10.8786C20.9147 11.0448 20.8098 11.3166 20.8735 11.5923C20.9372 11.8679 21.147 12.0718 21.4242 12.1209C25.6576 12.8685 28.4299 14.462 26.6766 18.676L30.5915 22.6218L31.2846 22.7087C31.9851 22.7955 32.5021 23.3997 32.4872 24.1095C32.4797 24.3625 32.5696 24.6155 32.7606 24.8043L34.7574 26.8169C35.1246 27.1869 35.724 27.1869 36.0911 26.8169L41.2873 21.5797C41.6394 21.2096 41.6394 20.6055 41.276 20.2354ZM34.173 32.0504C36.3983 34.2933 36.3983 37.9257 34.173 40.1686C31.9477 42.4115 28.34 42.4115 26.1184 40.1686C24.5637 38.6016 24.0954 36.3512 24.7173 34.3763L13.7817 23.3544C11.3354 24.3588 8.42821 23.8603 6.44266 21.8629C4.95162 20.3562 4.29976 18.3248 4.49457 16.3613C4.52079 16.1008 4.68188 15.8931 4.92914 15.8025C5.17265 15.7156 5.43115 15.7723 5.61472 15.9573L8.54435 18.9101C9.79188 20.1675 11.8336 20.1675 13.0812 18.9101C14.3287 17.6527 14.3287 15.591 13.0812 14.3374L10.1515 11.3846C9.96796 11.1996 9.91176 10.939 9.99793 10.6936C10.0878 10.4444 10.2939 10.282 10.5524 10.2556C12.5005 10.0592 14.516 10.7163 16.0108 12.2191C17.9926 14.2203 18.4871 17.1542 17.4906 19.6199L28.4261 30.6419C30.3892 30.0113 32.6183 30.4833 34.173 32.0504ZM31.5693 34.6746C30.7826 33.8817 29.5088 33.8817 28.7221 34.6746C27.9354 35.4676 27.9354 36.7514 28.7221 37.5444C29.5088 38.3373 30.7826 38.3373 31.5693 37.5444C32.3598 36.7514 32.3598 35.4676 31.5693 34.6746Z" fill="#251C0C"/>
</svg>
